<mxfile host="app.diagrams.net" agent="Mozilla/5.0 (Windows NT 10.0; Win64; x64) AppleWebKit/537.36 (KHTML, like Gecko) Chrome/129.0.0.0 Safari/537.36 Edg/129.0.0.0" version="24.7.16">
  <diagram name="第 1 页" id="ZjHd-OVIDltacxalpqwu">
    <mxGraphModel dx="1853" dy="504" grid="1" gridSize="10" guides="1" tooltips="1" connect="1" arrows="1" fold="1" page="1" pageScale="1" pageWidth="827" pageHeight="1169" math="0" shadow="0">
      <root>
        <mxCell id="0" />
        <mxCell id="1" parent="0" />
        <mxCell id="I8l1u90y0FQXs2-iVb4a-8" value="" style="html=1;verticalLabelPosition=bottom;verticalAlign=top;outlineConnect=0;shadow=0;dashed=0;shape=mxgraph.rack.hpe_aruba.switches.j9772a_2530_48g_poeplus_switch;container=0;" vertex="1" parent="1">
          <mxGeometry x="180" y="189.25" width="65" height="15" as="geometry" />
        </mxCell>
        <mxCell id="I8l1u90y0FQXs2-iVb4a-9" value="万兆交换机" style="text;html=1;align=center;verticalAlign=middle;whiteSpace=wrap;rounded=1;container=0;" vertex="1" parent="1">
          <mxGeometry x="44.5" y="179" width="80.5" height="35.5" as="geometry" />
        </mxCell>
        <mxCell id="I8l1u90y0FQXs2-iVb4a-13" value="世纪主中心" style="text;html=1;align=center;verticalAlign=middle;whiteSpace=wrap;rounded=1;fillColor=#e1d5e7;strokeColor=#9673a6;container=0;" vertex="1" parent="1">
          <mxGeometry x="172.25" y="139.5" width="80.5" height="30" as="geometry" />
        </mxCell>
        <mxCell id="I8l1u90y0FQXs2-iVb4a-17" value="" style="rounded=1;whiteSpace=wrap;html=1;fillColor=#e1d5e7;strokeColor=#9673a6;container=0;" vertex="1" parent="1">
          <mxGeometry x="72" y="82.5" width="80" height="25" as="geometry" />
        </mxCell>
        <mxCell id="I8l1u90y0FQXs2-iVb4a-18" value="" style="rounded=1;whiteSpace=wrap;html=1;fillColor=#fff2cc;strokeColor=#d6b656;container=0;" vertex="1" parent="1">
          <mxGeometry x="280" y="82.5" width="80" height="25" as="geometry" />
        </mxCell>
        <mxCell id="I8l1u90y0FQXs2-iVb4a-19" value="主节点" style="text;html=1;align=center;verticalAlign=middle;whiteSpace=wrap;rounded=1;container=0;" vertex="1" parent="1">
          <mxGeometry x="-20" y="80" width="80.5" height="30" as="geometry" />
        </mxCell>
        <mxCell id="I8l1u90y0FQXs2-iVb4a-20" value="备节点" style="text;html=1;align=center;verticalAlign=middle;whiteSpace=wrap;rounded=1;container=0;" vertex="1" parent="1">
          <mxGeometry x="177" y="80" width="80.5" height="30" as="geometry" />
        </mxCell>
        <mxCell id="I8l1u90y0FQXs2-iVb4a-21" value="" style="rounded=1;whiteSpace=wrap;html=1;container=0;" vertex="1" parent="1">
          <mxGeometry x="30" y="230" width="90" height="320" as="geometry" />
        </mxCell>
        <mxCell id="I8l1u90y0FQXs2-iVb4a-22" value="协调节点" style="rounded=1;whiteSpace=wrap;html=1;fillColor=#eeeeee;strokeColor=#36393d;container=0;" vertex="1" parent="1">
          <mxGeometry x="35" y="301" width="80" height="25" as="geometry" />
        </mxCell>
        <mxCell id="I8l1u90y0FQXs2-iVb4a-23" value="数据节点" style="rounded=1;whiteSpace=wrap;html=1;fillColor=#e1d5e7;strokeColor=#9673a6;container=0;" vertex="1" parent="1">
          <mxGeometry x="35" y="373.5" width="80" height="25" as="geometry" />
        </mxCell>
        <mxCell id="I8l1u90y0FQXs2-iVb4a-24" value="数据节点" style="rounded=1;whiteSpace=wrap;html=1;fillColor=#FFF2CC;strokeColor=#9673a6;container=0;" vertex="1" parent="1">
          <mxGeometry x="35" y="410" width="80" height="25" as="geometry" />
        </mxCell>
        <mxCell id="I8l1u90y0FQXs2-iVb4a-25" value="数据节点" style="rounded=1;whiteSpace=wrap;html=1;fillColor=#FFF2CC;strokeColor=#9673a6;container=0;" vertex="1" parent="1">
          <mxGeometry x="35" y="490" width="80" height="25" as="geometry" />
        </mxCell>
        <mxCell id="I8l1u90y0FQXs2-iVb4a-27" style="edgeStyle=orthogonalEdgeStyle;rounded=0;orthogonalLoop=1;jettySize=auto;html=1;endArrow=none;endFill=0;exitX=0.5;exitY=0;exitDx=0;exitDy=0;" edge="1" parent="1">
          <mxGeometry relative="1" as="geometry">
            <Array as="points">
              <mxPoint x="72" y="230" />
              <mxPoint x="72" y="220" />
              <mxPoint x="340" y="220" />
              <mxPoint x="340" y="230" />
            </Array>
            <mxPoint x="77.25" y="230" as="sourcePoint" />
            <mxPoint x="340" y="230" as="targetPoint" />
          </mxGeometry>
        </mxCell>
        <mxCell id="I8l1u90y0FQXs2-iVb4a-28" value="" style="endArrow=none;html=1;rounded=0;" edge="1" parent="1">
          <mxGeometry width="50" height="50" relative="1" as="geometry">
            <mxPoint x="212" y="230" as="sourcePoint" />
            <mxPoint x="211.6127819548874" y="204.25" as="targetPoint" />
          </mxGeometry>
        </mxCell>
        <mxCell id="I8l1u90y0FQXs2-iVb4a-42" value="" style="edgeStyle=orthogonalEdgeStyle;rounded=0;orthogonalLoop=1;jettySize=auto;html=1;" edge="1" parent="1" source="I8l1u90y0FQXs2-iVb4a-32" target="I8l1u90y0FQXs2-iVb4a-35">
          <mxGeometry relative="1" as="geometry">
            <Array as="points">
              <mxPoint x="75" y="350" />
              <mxPoint x="75" y="350" />
            </Array>
          </mxGeometry>
        </mxCell>
        <mxCell id="I8l1u90y0FQXs2-iVb4a-32" value="mysql(3306)" style="rounded=1;whiteSpace=wrap;html=1;fillColor=#cdeb8b;strokeColor=#36393d;container=0;" vertex="1" parent="1">
          <mxGeometry x="35" y="240" width="80" height="25" as="geometry" />
        </mxCell>
        <mxCell id="I8l1u90y0FQXs2-iVb4a-41" style="edgeStyle=orthogonalEdgeStyle;rounded=0;orthogonalLoop=1;jettySize=auto;html=1;exitX=0.5;exitY=1;exitDx=0;exitDy=0;" edge="1" parent="1" source="I8l1u90y0FQXs2-iVb4a-35" target="I8l1u90y0FQXs2-iVb4a-21">
          <mxGeometry relative="1" as="geometry" />
        </mxCell>
        <mxCell id="I8l1u90y0FQXs2-iVb4a-96" style="edgeStyle=orthogonalEdgeStyle;rounded=0;orthogonalLoop=1;jettySize=auto;html=1;exitX=0.5;exitY=0;exitDx=0;exitDy=0;" edge="1" parent="1" source="I8l1u90y0FQXs2-iVb4a-35">
          <mxGeometry relative="1" as="geometry">
            <mxPoint x="75" y="370" as="targetPoint" />
          </mxGeometry>
        </mxCell>
        <mxCell id="I8l1u90y0FQXs2-iVb4a-35" value="编目节点(主)" style="rounded=1;whiteSpace=wrap;html=1;fillColor=#cce5ff;strokeColor=#36393d;container=0;" vertex="1" parent="1">
          <mxGeometry x="35" y="337.5" width="80" height="25" as="geometry" />
        </mxCell>
        <mxCell id="I8l1u90y0FQXs2-iVb4a-38" value="&amp;lt;192.168.6.227&amp;gt;" style="text;html=1;align=center;verticalAlign=middle;whiteSpace=wrap;rounded=1;container=0;" vertex="1" parent="1">
          <mxGeometry x="30" y="520" width="90" height="80" as="geometry" />
        </mxCell>
        <mxCell id="I8l1u90y0FQXs2-iVb4a-43" value="mariadb（6101）" style="rounded=1;whiteSpace=wrap;html=1;fillColor=#cdeb8b;strokeColor=#36393d;container=0;" vertex="1" parent="1">
          <mxGeometry x="35" y="270" width="80" height="25" as="geometry" />
        </mxCell>
        <mxCell id="I8l1u90y0FQXs2-iVb4a-51" value="&lt;font style=&quot;font-size: 24px;&quot;&gt;...&lt;/font&gt;" style="rounded=1;whiteSpace=wrap;html=1;fillColor=#FFF2CC;strokeColor=#9673a6;container=0;align=center;" vertex="1" parent="1">
          <mxGeometry x="35" y="450" width="80" height="25" as="geometry" />
        </mxCell>
        <mxCell id="I8l1u90y0FQXs2-iVb4a-55" value="JRXwdsdb1" style="text;html=1;align=center;verticalAlign=middle;whiteSpace=wrap;rounded=1;container=0;" vertex="1" parent="1">
          <mxGeometry x="30" y="520" width="90" height="30" as="geometry" />
        </mxCell>
        <mxCell id="I8l1u90y0FQXs2-iVb4a-56" value="" style="rounded=1;whiteSpace=wrap;html=1;container=0;" vertex="1" parent="1">
          <mxGeometry x="167.5" y="230" width="90" height="320" as="geometry" />
        </mxCell>
        <mxCell id="I8l1u90y0FQXs2-iVb4a-57" value="协调节点" style="rounded=1;whiteSpace=wrap;html=1;fillColor=#eeeeee;strokeColor=#36393d;container=0;" vertex="1" parent="1">
          <mxGeometry x="172.5" y="301" width="80" height="25" as="geometry" />
        </mxCell>
        <mxCell id="I8l1u90y0FQXs2-iVb4a-58" value="数据节点" style="rounded=1;whiteSpace=wrap;html=1;fillColor=#e1d5e7;strokeColor=#9673a6;container=0;" vertex="1" parent="1">
          <mxGeometry x="170" y="410" width="80" height="25" as="geometry" />
        </mxCell>
        <mxCell id="I8l1u90y0FQXs2-iVb4a-59" value="数据节点" style="rounded=1;whiteSpace=wrap;html=1;fillColor=#FFF2CC;strokeColor=#9673a6;container=0;" vertex="1" parent="1">
          <mxGeometry x="172.25" y="373.5" width="80" height="25" as="geometry" />
        </mxCell>
        <mxCell id="I8l1u90y0FQXs2-iVb4a-60" value="数据节点" style="rounded=1;whiteSpace=wrap;html=1;fillColor=#FFF2CC;strokeColor=#9673a6;container=0;" vertex="1" parent="1">
          <mxGeometry x="172.5" y="490" width="80" height="25" as="geometry" />
        </mxCell>
        <mxCell id="I8l1u90y0FQXs2-iVb4a-61" value="" style="edgeStyle=orthogonalEdgeStyle;rounded=0;orthogonalLoop=1;jettySize=auto;html=1;" edge="1" parent="1" source="I8l1u90y0FQXs2-iVb4a-62" target="I8l1u90y0FQXs2-iVb4a-63">
          <mxGeometry relative="1" as="geometry">
            <Array as="points">
              <mxPoint x="212.5" y="350" />
              <mxPoint x="212.5" y="350" />
            </Array>
          </mxGeometry>
        </mxCell>
        <mxCell id="I8l1u90y0FQXs2-iVb4a-62" value="mysql(3306)" style="rounded=1;whiteSpace=wrap;html=1;fillColor=#cdeb8b;strokeColor=#36393d;container=0;" vertex="1" parent="1">
          <mxGeometry x="172.5" y="240" width="80" height="25" as="geometry" />
        </mxCell>
        <mxCell id="I8l1u90y0FQXs2-iVb4a-63" value="编目节点" style="rounded=1;whiteSpace=wrap;html=1;fillColor=#cce5ff;strokeColor=#36393d;container=0;" vertex="1" parent="1">
          <mxGeometry x="172.5" y="337.5" width="80" height="25" as="geometry" />
        </mxCell>
        <mxCell id="I8l1u90y0FQXs2-iVb4a-64" value="mariadb（6101）" style="rounded=1;whiteSpace=wrap;html=1;fillColor=#cdeb8b;strokeColor=#36393d;container=0;" vertex="1" parent="1">
          <mxGeometry x="172.5" y="270" width="80" height="25" as="geometry" />
        </mxCell>
        <mxCell id="I8l1u90y0FQXs2-iVb4a-65" value="&lt;font style=&quot;font-size: 24px;&quot;&gt;...&lt;/font&gt;" style="rounded=1;whiteSpace=wrap;html=1;fillColor=#FFF2CC;strokeColor=#9673a6;container=0;align=center;" vertex="1" parent="1">
          <mxGeometry x="172.5" y="450" width="80" height="25" as="geometry" />
        </mxCell>
        <mxCell id="I8l1u90y0FQXs2-iVb4a-66" value="JRXwdsdb2" style="text;html=1;align=center;verticalAlign=middle;whiteSpace=wrap;rounded=1;container=0;" vertex="1" parent="1">
          <mxGeometry x="167.5" y="520" width="90" height="30" as="geometry" />
        </mxCell>
        <mxCell id="I8l1u90y0FQXs2-iVb4a-80" value="" style="rounded=1;whiteSpace=wrap;html=1;container=0;" vertex="1" parent="1">
          <mxGeometry x="300" y="230" width="90" height="320" as="geometry" />
        </mxCell>
        <mxCell id="I8l1u90y0FQXs2-iVb4a-81" value="协调节点" style="rounded=1;whiteSpace=wrap;html=1;fillColor=#eeeeee;strokeColor=#36393d;container=0;" vertex="1" parent="1">
          <mxGeometry x="305" y="301" width="80" height="25" as="geometry" />
        </mxCell>
        <mxCell id="I8l1u90y0FQXs2-iVb4a-82" value="数据节点" style="rounded=1;whiteSpace=wrap;html=1;fillColor=#e1d5e7;strokeColor=#9673a6;container=0;" vertex="1" parent="1">
          <mxGeometry x="305" y="490" width="80" height="25" as="geometry" />
        </mxCell>
        <mxCell id="I8l1u90y0FQXs2-iVb4a-83" value="数据节点" style="rounded=1;whiteSpace=wrap;html=1;fillColor=#FFF2CC;strokeColor=#9673a6;container=0;" vertex="1" parent="1">
          <mxGeometry x="305" y="410" width="80" height="25" as="geometry" />
        </mxCell>
        <mxCell id="I8l1u90y0FQXs2-iVb4a-84" value="数据节点" style="rounded=1;whiteSpace=wrap;html=1;fillColor=#FFF2CC;strokeColor=#9673a6;container=0;" vertex="1" parent="1">
          <mxGeometry x="305" y="373.5" width="80" height="25" as="geometry" />
        </mxCell>
        <mxCell id="I8l1u90y0FQXs2-iVb4a-85" value="" style="edgeStyle=orthogonalEdgeStyle;rounded=0;orthogonalLoop=1;jettySize=auto;html=1;" edge="1" parent="1" source="I8l1u90y0FQXs2-iVb4a-86" target="I8l1u90y0FQXs2-iVb4a-87">
          <mxGeometry relative="1" as="geometry">
            <Array as="points">
              <mxPoint x="345" y="350" />
              <mxPoint x="345" y="350" />
            </Array>
          </mxGeometry>
        </mxCell>
        <mxCell id="I8l1u90y0FQXs2-iVb4a-86" value="mysql(3306)" style="rounded=1;whiteSpace=wrap;html=1;fillColor=#cdeb8b;strokeColor=#36393d;container=0;" vertex="1" parent="1">
          <mxGeometry x="305" y="240" width="80" height="25" as="geometry" />
        </mxCell>
        <mxCell id="I8l1u90y0FQXs2-iVb4a-87" value="编目节点" style="rounded=1;whiteSpace=wrap;html=1;fillColor=#cce5ff;strokeColor=#36393d;container=0;" vertex="1" parent="1">
          <mxGeometry x="305" y="337.5" width="80" height="25" as="geometry" />
        </mxCell>
        <mxCell id="I8l1u90y0FQXs2-iVb4a-88" value="mariadb（6101）" style="rounded=1;whiteSpace=wrap;html=1;fillColor=#cdeb8b;strokeColor=#36393d;container=0;" vertex="1" parent="1">
          <mxGeometry x="305" y="270" width="80" height="25" as="geometry" />
        </mxCell>
        <mxCell id="I8l1u90y0FQXs2-iVb4a-89" value="&lt;font style=&quot;font-size: 24px;&quot;&gt;...&lt;/font&gt;" style="rounded=1;whiteSpace=wrap;html=1;fillColor=#FFF2CC;strokeColor=#9673a6;container=0;align=center;" vertex="1" parent="1">
          <mxGeometry x="305" y="450" width="80" height="25" as="geometry" />
        </mxCell>
        <mxCell id="I8l1u90y0FQXs2-iVb4a-90" value="JRXwdsdb3" style="text;html=1;align=center;verticalAlign=middle;whiteSpace=wrap;rounded=1;container=0;" vertex="1" parent="1">
          <mxGeometry x="300" y="520" width="90" height="30" as="geometry" />
        </mxCell>
        <mxCell id="I8l1u90y0FQXs2-iVb4a-91" value="&amp;lt;192.168.6.229&amp;gt;" style="text;html=1;align=center;verticalAlign=middle;whiteSpace=wrap;rounded=1;container=0;" vertex="1" parent="1">
          <mxGeometry x="300" y="520" width="90" height="80" as="geometry" />
        </mxCell>
        <mxCell id="I8l1u90y0FQXs2-iVb4a-92" value="&amp;lt;192.168.6.228&amp;gt;" style="text;html=1;align=center;verticalAlign=middle;whiteSpace=wrap;rounded=1;container=0;" vertex="1" parent="1">
          <mxGeometry x="167.5" y="520" width="90" height="80" as="geometry" />
        </mxCell>
        <mxCell id="I8l1u90y0FQXs2-iVb4a-97" value="mysql" style="rounded=1;whiteSpace=wrap;html=1;fillColor=none;strokeColor=#36393d;dashed=1;container=0;" vertex="1" parent="1">
          <mxGeometry x="430" y="240" width="65" height="25" as="geometry" />
        </mxCell>
        <mxCell id="I8l1u90y0FQXs2-iVb4a-98" value="mariadb" style="rounded=1;whiteSpace=wrap;html=1;fillColor=none;strokeColor=#36393d;dashed=1;container=0;" vertex="1" parent="1">
          <mxGeometry x="430" y="270" width="65" height="25" as="geometry" />
        </mxCell>
        <mxCell id="I8l1u90y0FQXs2-iVb4a-99" value="group1" style="rounded=1;whiteSpace=wrap;html=1;fillColor=none;strokeColor=#36393d;dashed=1;container=0;" vertex="1" parent="1">
          <mxGeometry x="430" y="370" width="65" height="25" as="geometry" />
        </mxCell>
        <mxCell id="I8l1u90y0FQXs2-iVb4a-100" value="group2" style="rounded=1;whiteSpace=wrap;html=1;fillColor=none;strokeColor=#36393d;dashed=1;container=0;" vertex="1" parent="1">
          <mxGeometry x="430" y="410" width="65" height="25" as="geometry" />
        </mxCell>
        <mxCell id="I8l1u90y0FQXs2-iVb4a-101" value="&lt;font style=&quot;font-size: 24px;&quot;&gt;...&lt;/font&gt;" style="rounded=1;whiteSpace=wrap;html=1;fillColor=none;strokeColor=#36393d;dashed=1;container=0;" vertex="1" parent="1">
          <mxGeometry x="430" y="450" width="65" height="25" as="geometry" />
        </mxCell>
        <mxCell id="I8l1u90y0FQXs2-iVb4a-102" value="group10" style="rounded=1;whiteSpace=wrap;html=1;fillColor=none;strokeColor=#36393d;dashed=1;container=0;" vertex="1" parent="1">
          <mxGeometry x="430" y="490" width="65" height="25" as="geometry" />
        </mxCell>
        <mxCell id="I8l1u90y0FQXs2-iVb4a-104" value="" style="html=1;verticalLabelPosition=bottom;verticalAlign=top;outlineConnect=0;shadow=0;dashed=0;shape=mxgraph.rack.hpe_aruba.switches.j9772a_2530_48g_poeplus_switch;container=0;" vertex="1" parent="1">
          <mxGeometry x="160" y="679.75" width="65" height="15" as="geometry" />
        </mxCell>
        <mxCell id="I8l1u90y0FQXs2-iVb4a-105" value="万兆交换机" style="text;html=1;align=center;verticalAlign=middle;whiteSpace=wrap;rounded=1;container=0;" vertex="1" parent="1">
          <mxGeometry x="24.5" y="669.5" width="80.5" height="35.5" as="geometry" />
        </mxCell>
        <mxCell id="I8l1u90y0FQXs2-iVb4a-106" value="世纪主中心" style="text;html=1;align=center;verticalAlign=middle;whiteSpace=wrap;rounded=1;fillColor=#e1d5e7;strokeColor=#9673a6;container=0;" vertex="1" parent="1">
          <mxGeometry x="152.25" y="630" width="80.5" height="30" as="geometry" />
        </mxCell>
        <mxCell id="I8l1u90y0FQXs2-iVb4a-107" value="" style="rounded=1;whiteSpace=wrap;html=1;container=0;" vertex="1" parent="1">
          <mxGeometry x="10" y="720.5" width="90" height="320" as="geometry" />
        </mxCell>
        <mxCell id="I8l1u90y0FQXs2-iVb4a-108" value="协调节点" style="rounded=1;whiteSpace=wrap;html=1;fillColor=#eeeeee;strokeColor=#36393d;container=0;" vertex="1" parent="1">
          <mxGeometry x="15" y="770" width="80" height="25" as="geometry" />
        </mxCell>
        <mxCell id="I8l1u90y0FQXs2-iVb4a-109" value="数据节点" style="rounded=1;whiteSpace=wrap;html=1;fillColor=#e1d5e7;strokeColor=#9673a6;container=0;" vertex="1" parent="1">
          <mxGeometry x="15" y="864" width="80" height="25" as="geometry" />
        </mxCell>
        <mxCell id="I8l1u90y0FQXs2-iVb4a-110" value="数据节点" style="rounded=1;whiteSpace=wrap;html=1;fillColor=#FFF2CC;strokeColor=#9673a6;container=0;" vertex="1" parent="1">
          <mxGeometry x="15" y="900.5" width="80" height="25" as="geometry" />
        </mxCell>
        <mxCell id="I8l1u90y0FQXs2-iVb4a-111" value="数据节点" style="rounded=1;whiteSpace=wrap;html=1;fillColor=#FFF2CC;strokeColor=#9673a6;container=0;" vertex="1" parent="1">
          <mxGeometry x="15" y="980.5" width="80" height="25" as="geometry" />
        </mxCell>
        <mxCell id="I8l1u90y0FQXs2-iVb4a-112" style="edgeStyle=orthogonalEdgeStyle;rounded=0;orthogonalLoop=1;jettySize=auto;html=1;endArrow=none;endFill=0;exitX=0.5;exitY=0;exitDx=0;exitDy=0;" edge="1" parent="1">
          <mxGeometry relative="1" as="geometry">
            <Array as="points">
              <mxPoint x="52" y="720.5" />
              <mxPoint x="52" y="710.5" />
              <mxPoint x="320" y="710.5" />
              <mxPoint x="320" y="720.5" />
            </Array>
            <mxPoint x="57.25" y="720.5" as="sourcePoint" />
            <mxPoint x="320" y="720.5" as="targetPoint" />
          </mxGeometry>
        </mxCell>
        <mxCell id="I8l1u90y0FQXs2-iVb4a-113" value="" style="endArrow=none;html=1;rounded=0;" edge="1" parent="1">
          <mxGeometry width="50" height="50" relative="1" as="geometry">
            <mxPoint x="192" y="720.5" as="sourcePoint" />
            <mxPoint x="191.6127819548874" y="694.75" as="targetPoint" />
          </mxGeometry>
        </mxCell>
        <mxCell id="I8l1u90y0FQXs2-iVb4a-114" value="" style="edgeStyle=orthogonalEdgeStyle;rounded=0;orthogonalLoop=1;jettySize=auto;html=1;" edge="1" parent="1" source="I8l1u90y0FQXs2-iVb4a-115" target="I8l1u90y0FQXs2-iVb4a-118">
          <mxGeometry relative="1" as="geometry">
            <Array as="points">
              <mxPoint x="55" y="840.5" />
              <mxPoint x="55" y="840.5" />
            </Array>
          </mxGeometry>
        </mxCell>
        <mxCell id="I8l1u90y0FQXs2-iVb4a-115" value="mysql(3306)" style="rounded=1;whiteSpace=wrap;html=1;fillColor=#cdeb8b;strokeColor=#36393d;container=0;" vertex="1" parent="1">
          <mxGeometry x="15" y="730.5" width="80" height="25" as="geometry" />
        </mxCell>
        <mxCell id="I8l1u90y0FQXs2-iVb4a-116" style="edgeStyle=orthogonalEdgeStyle;rounded=0;orthogonalLoop=1;jettySize=auto;html=1;exitX=0.5;exitY=1;exitDx=0;exitDy=0;" edge="1" parent="1" source="I8l1u90y0FQXs2-iVb4a-118" target="I8l1u90y0FQXs2-iVb4a-107">
          <mxGeometry relative="1" as="geometry" />
        </mxCell>
        <mxCell id="I8l1u90y0FQXs2-iVb4a-118" value="编目节点(主)" style="rounded=1;whiteSpace=wrap;html=1;fillColor=#cce5ff;strokeColor=#36393d;container=0;" vertex="1" parent="1">
          <mxGeometry x="15" y="816.5" width="80" height="25" as="geometry" />
        </mxCell>
        <mxCell id="I8l1u90y0FQXs2-iVb4a-120" value="&lt;font style=&quot;font-size: 24px;&quot;&gt;...&lt;/font&gt;" style="rounded=1;whiteSpace=wrap;html=1;fillColor=#FFF2CC;strokeColor=#9673a6;container=0;align=center;" vertex="1" parent="1">
          <mxGeometry x="15" y="940.5" width="80" height="25" as="geometry" />
        </mxCell>
        <mxCell id="I8l1u90y0FQXs2-iVb4a-121" value="JRXwdsdb4" style="text;html=1;align=center;verticalAlign=middle;whiteSpace=wrap;rounded=1;container=0;" vertex="1" parent="1">
          <mxGeometry x="10" y="1010.5" width="90" height="30" as="geometry" />
        </mxCell>
        <mxCell id="I8l1u90y0FQXs2-iVb4a-122" value="" style="rounded=1;whiteSpace=wrap;html=1;container=0;" vertex="1" parent="1">
          <mxGeometry x="147.5" y="720.5" width="90" height="320" as="geometry" />
        </mxCell>
        <mxCell id="I8l1u90y0FQXs2-iVb4a-123" value="协调节点" style="rounded=1;whiteSpace=wrap;html=1;fillColor=#eeeeee;strokeColor=#36393d;container=0;" vertex="1" parent="1">
          <mxGeometry x="150" y="770" width="80" height="25" as="geometry" />
        </mxCell>
        <mxCell id="I8l1u90y0FQXs2-iVb4a-124" value="数据节点" style="rounded=1;whiteSpace=wrap;html=1;fillColor=#e1d5e7;strokeColor=#9673a6;container=0;" vertex="1" parent="1">
          <mxGeometry x="150" y="900.5" width="80" height="25" as="geometry" />
        </mxCell>
        <mxCell id="I8l1u90y0FQXs2-iVb4a-125" value="数据节点" style="rounded=1;whiteSpace=wrap;html=1;fillColor=#FFF2CC;strokeColor=#9673a6;container=0;" vertex="1" parent="1">
          <mxGeometry x="152.25" y="864" width="80" height="25" as="geometry" />
        </mxCell>
        <mxCell id="I8l1u90y0FQXs2-iVb4a-126" value="数据节点" style="rounded=1;whiteSpace=wrap;html=1;fillColor=#FFF2CC;strokeColor=#9673a6;container=0;" vertex="1" parent="1">
          <mxGeometry x="152.5" y="980.5" width="80" height="25" as="geometry" />
        </mxCell>
        <mxCell id="I8l1u90y0FQXs2-iVb4a-127" value="" style="edgeStyle=orthogonalEdgeStyle;rounded=0;orthogonalLoop=1;jettySize=auto;html=1;" edge="1" parent="1" source="I8l1u90y0FQXs2-iVb4a-128" target="I8l1u90y0FQXs2-iVb4a-129">
          <mxGeometry relative="1" as="geometry">
            <Array as="points">
              <mxPoint x="192.5" y="840.5" />
              <mxPoint x="192.5" y="840.5" />
            </Array>
          </mxGeometry>
        </mxCell>
        <mxCell id="I8l1u90y0FQXs2-iVb4a-128" value="mysql(3306)" style="rounded=1;whiteSpace=wrap;html=1;fillColor=#cdeb8b;strokeColor=#36393d;container=0;" vertex="1" parent="1">
          <mxGeometry x="152.5" y="730.5" width="80" height="25" as="geometry" />
        </mxCell>
        <mxCell id="I8l1u90y0FQXs2-iVb4a-129" value="编目节点" style="rounded=1;whiteSpace=wrap;html=1;fillColor=#cce5ff;strokeColor=#36393d;container=0;" vertex="1" parent="1">
          <mxGeometry x="152.5" y="816.5" width="80" height="25" as="geometry" />
        </mxCell>
        <mxCell id="I8l1u90y0FQXs2-iVb4a-131" value="&lt;font style=&quot;font-size: 24px;&quot;&gt;...&lt;/font&gt;" style="rounded=1;whiteSpace=wrap;html=1;fillColor=#FFF2CC;strokeColor=#9673a6;container=0;align=center;" vertex="1" parent="1">
          <mxGeometry x="152.5" y="940.5" width="80" height="25" as="geometry" />
        </mxCell>
        <mxCell id="I8l1u90y0FQXs2-iVb4a-132" value="JRXwdsdb5" style="text;html=1;align=center;verticalAlign=middle;whiteSpace=wrap;rounded=1;container=0;" vertex="1" parent="1">
          <mxGeometry x="147.5" y="1010.5" width="90" height="30" as="geometry" />
        </mxCell>
        <mxCell id="I8l1u90y0FQXs2-iVb4a-133" value="" style="rounded=1;whiteSpace=wrap;html=1;container=0;" vertex="1" parent="1">
          <mxGeometry x="280" y="720.5" width="90" height="320" as="geometry" />
        </mxCell>
        <mxCell id="I8l1u90y0FQXs2-iVb4a-134" value="协调节点" style="rounded=1;whiteSpace=wrap;html=1;fillColor=#eeeeee;strokeColor=#36393d;container=0;" vertex="1" parent="1">
          <mxGeometry x="285" y="770" width="80" height="25" as="geometry" />
        </mxCell>
        <mxCell id="I8l1u90y0FQXs2-iVb4a-135" value="数据节点" style="rounded=1;whiteSpace=wrap;html=1;fillColor=#e1d5e7;strokeColor=#9673a6;container=0;" vertex="1" parent="1">
          <mxGeometry x="285" y="980.5" width="80" height="25" as="geometry" />
        </mxCell>
        <mxCell id="I8l1u90y0FQXs2-iVb4a-136" value="数据节点" style="rounded=1;whiteSpace=wrap;html=1;fillColor=#FFF2CC;strokeColor=#9673a6;container=0;" vertex="1" parent="1">
          <mxGeometry x="285" y="900.5" width="80" height="25" as="geometry" />
        </mxCell>
        <mxCell id="I8l1u90y0FQXs2-iVb4a-137" value="数据节点" style="rounded=1;whiteSpace=wrap;html=1;fillColor=#FFF2CC;strokeColor=#9673a6;container=0;" vertex="1" parent="1">
          <mxGeometry x="285" y="864" width="80" height="25" as="geometry" />
        </mxCell>
        <mxCell id="I8l1u90y0FQXs2-iVb4a-138" value="" style="edgeStyle=orthogonalEdgeStyle;rounded=0;orthogonalLoop=1;jettySize=auto;html=1;" edge="1" parent="1" source="I8l1u90y0FQXs2-iVb4a-139" target="I8l1u90y0FQXs2-iVb4a-140">
          <mxGeometry relative="1" as="geometry">
            <Array as="points">
              <mxPoint x="325" y="840.5" />
              <mxPoint x="325" y="840.5" />
            </Array>
          </mxGeometry>
        </mxCell>
        <mxCell id="I8l1u90y0FQXs2-iVb4a-139" value="mysql(3306)" style="rounded=1;whiteSpace=wrap;html=1;fillColor=#cdeb8b;strokeColor=#36393d;container=0;" vertex="1" parent="1">
          <mxGeometry x="285" y="730.5" width="80" height="25" as="geometry" />
        </mxCell>
        <mxCell id="I8l1u90y0FQXs2-iVb4a-140" value="编目节点" style="rounded=1;whiteSpace=wrap;html=1;fillColor=#cce5ff;strokeColor=#36393d;container=0;" vertex="1" parent="1">
          <mxGeometry x="285" y="816.5" width="80" height="25" as="geometry" />
        </mxCell>
        <mxCell id="I8l1u90y0FQXs2-iVb4a-142" value="&lt;font style=&quot;font-size: 24px;&quot;&gt;...&lt;/font&gt;" style="rounded=1;whiteSpace=wrap;html=1;fillColor=#FFF2CC;strokeColor=#9673a6;container=0;align=center;" vertex="1" parent="1">
          <mxGeometry x="285" y="940.5" width="80" height="25" as="geometry" />
        </mxCell>
        <mxCell id="I8l1u90y0FQXs2-iVb4a-143" value="JRXwdsdb6" style="text;html=1;align=center;verticalAlign=middle;whiteSpace=wrap;rounded=1;container=0;" vertex="1" parent="1">
          <mxGeometry x="280" y="1010.5" width="90" height="30" as="geometry" />
        </mxCell>
        <mxCell id="I8l1u90y0FQXs2-iVb4a-144" value="mysql" style="rounded=1;whiteSpace=wrap;html=1;fillColor=none;strokeColor=#36393d;dashed=1;container=0;" vertex="1" parent="1">
          <mxGeometry x="410" y="730.5" width="65" height="25" as="geometry" />
        </mxCell>
        <mxCell id="I8l1u90y0FQXs2-iVb4a-146" value="group11" style="rounded=1;whiteSpace=wrap;html=1;fillColor=none;strokeColor=#36393d;dashed=1;container=0;" vertex="1" parent="1">
          <mxGeometry x="410" y="864" width="65" height="25" as="geometry" />
        </mxCell>
        <mxCell id="I8l1u90y0FQXs2-iVb4a-147" value="group12" style="rounded=1;whiteSpace=wrap;html=1;fillColor=none;strokeColor=#36393d;dashed=1;container=0;" vertex="1" parent="1">
          <mxGeometry x="410" y="900.5" width="65" height="25" as="geometry" />
        </mxCell>
        <mxCell id="I8l1u90y0FQXs2-iVb4a-148" value="&lt;font style=&quot;font-size: 24px;&quot;&gt;...&lt;/font&gt;" style="rounded=1;whiteSpace=wrap;html=1;fillColor=none;strokeColor=#36393d;dashed=1;container=0;" vertex="1" parent="1">
          <mxGeometry x="410" y="940.5" width="65" height="25" as="geometry" />
        </mxCell>
        <mxCell id="I8l1u90y0FQXs2-iVb4a-149" value="group19" style="rounded=1;whiteSpace=wrap;html=1;fillColor=none;strokeColor=#36393d;dashed=1;container=0;" vertex="1" parent="1">
          <mxGeometry x="410" y="980.5" width="65" height="25" as="geometry" />
        </mxCell>
        <mxCell id="I8l1u90y0FQXs2-iVb4a-150" value="&amp;lt;192.168.6.227&amp;gt;" style="text;html=1;align=center;verticalAlign=middle;whiteSpace=wrap;rounded=1;container=0;" vertex="1" parent="1">
          <mxGeometry x="10" y="1010.5" width="90" height="80" as="geometry" />
        </mxCell>
        <mxCell id="I8l1u90y0FQXs2-iVb4a-151" value="&amp;lt;192.168.6.228&amp;gt;" style="text;html=1;align=center;verticalAlign=middle;whiteSpace=wrap;rounded=1;container=0;" vertex="1" parent="1">
          <mxGeometry x="150" y="1010.5" width="90" height="80" as="geometry" />
        </mxCell>
        <mxCell id="I8l1u90y0FQXs2-iVb4a-152" value="&amp;lt;192.168.6.229&amp;gt;" style="text;html=1;align=center;verticalAlign=middle;whiteSpace=wrap;rounded=1;container=0;" vertex="1" parent="1">
          <mxGeometry x="280" y="1010.5" width="90" height="80" as="geometry" />
        </mxCell>
      </root>
    </mxGraphModel>
  </diagram>
</mxfile>
